# xmcd
#
# Track frame offsets: 
#        150
#        16818
#        37338
#        56397
#        73941
#        90030
#        107021
#        132707
#        157313
#        175354
#        192870
#        212781
#
# Disc length: 3043 seconds
#
# Revision: 1
# Processed by: cddbd v1.5.2PL0 Copyright (c) Steve Scherf et al.
# Submitted via: ExactAudioCopyFreeDBPlugin 1.0
#
DISCID=ad0be10c
DTITLE=Landgren - Wollny - Danielsson - Haffner - 4 Wheel Drive
DYEAR=2019
DGENRE=Jazz
TTITLE0=Polygon
TTITLE1=Another Day in Paradise
TTITLE2=Lady Madonna
TTITLE3=Shadows in the Rain
TTITLE4=Lobito
TTITLE5=Maybe I'm Amazed
TTITLE6=She's Always a Woman
TTITLE7=Le chat sur toit
TTITLE8=Just the Way You Are
TTITLE9=If You Love Somebody Set Them Free
TTITLE10=That's All
TTITLE11=4WD
EXTD=YEAR: 2019
EXTT0=
EXTT1=
EXTT2=
EXTT3=
EXTT4=
EXTT5=
EXTT6=
EXTT7=
EXTT8=
EXTT9=
EXTT10=
EXTT11=
PLAYORDER=
